<svg width="26" height="32" viewBox="0 0 26 32" fill="none" xmlns="http://www.w3.org/2000/svg">
<path d="M22.5002 6.50008H19.3335C19.3335 3.00092 16.4993 0.166748 13.0002 0.166748C9.501 0.166748 6.66683 3.00092 6.66683 6.50008H3.50016C1.7585 6.50008 0.333496 7.92508 0.333496 9.66675V28.6668C0.333496 30.4084 1.7585 31.8334 3.50016 31.8334H22.5002C24.2418 31.8334 25.6668 30.4084 25.6668 28.6668V9.66675C25.6668 7.92508 24.2418 6.50008 22.5002 6.50008ZM13.0002 3.33342C14.7418 3.33342 16.1668 4.75842 16.1668 6.50008H9.8335C9.8335 4.75842 11.2585 3.33342 13.0002 3.33342ZM22.5002 28.6668H3.50016V9.66675H6.66683V12.8334C6.66683 13.7042 7.37933 14.4167 8.25016 14.4167C9.121 14.4167 9.8335 13.7042 9.8335 12.8334V9.66675H16.1668V12.8334C16.1668 13.7042 16.8793 14.4167 17.7502 14.4167C18.621 14.4167 19.3335 13.7042 19.3335 12.8334V9.66675H22.5002V28.6668Z" fill="#002F52"/>
</svg>
